<svg width="72" height="72" viewBox="0 0 72 72" fill="none" xmlns="http://www.w3.org/2000/svg">
<path d="M33.585 33.96H11.64V10.575C11.64 9.43499 12.57 8.51999 13.71 8.51999C14.85 8.51999 15.78 9.43499 15.78 10.575V11.475C15.78 10.6933 16.0906 9.94356 16.6433 9.39079C17.1961 8.83803 17.9458 8.52749 18.7275 8.52749C19.5092 8.52749 20.2589 8.83803 20.8117 9.39079C21.3645 9.94356 21.675 10.6933 21.675 11.475C21.675 10.65 22.005 9.91499 22.545 9.38999C22.9574 8.97634 23.4833 8.6944 24.056 8.57988C24.6288 8.46537 25.2227 8.52343 25.7624 8.74671C26.3021 8.96999 26.7635 9.34845 27.0879 9.83414C27.4124 10.3198 27.5854 10.8909 27.585 11.475C27.585 10.65 27.915 9.91499 28.455 9.38999C28.8674 8.97634 29.3933 8.6944 29.966 8.57988C30.5388 8.46537 31.1327 8.52343 31.6724 8.74671C32.2121 8.96999 32.6735 9.34845 32.9979 9.83414C33.3224 10.3198 33.4954 10.8909 33.495 11.475V10.575C33.495 9.43499 34.425 8.51999 35.565 8.51999C36.705 8.51999 37.62 9.43499 37.62 10.575V13.26M15.774 11.4705V16.362M21.681 11.4705V16.362M27.588 11.4705V16.362M33.4965 11.4705V13.224" stroke="#F24E1E" stroke-width="1.5" stroke-linecap="round" stroke-linejoin="round"/>
<path d="M11.64 33.09H10.32C9.105 33.09 8.145 34.125 8.265 35.355C8.355 36.435 9.33 37.215 10.395 37.215H11.205C10.6209 37.2146 10.0498 37.3876 9.56415 37.7121C9.07846 38.0366 8.7 38.4979 8.47672 39.0376C8.25344 39.5773 8.19538 40.1712 8.30989 40.744C8.42441 41.3167 8.70635 41.8426 9.12 42.255C9.645 42.795 10.38 43.125 11.205 43.125M11.205 43.125C10.6209 43.1246 10.0498 43.2976 9.56415 43.6221C9.07846 43.9466 8.7 44.4079 8.47672 44.9476C8.25344 45.4873 8.19538 46.0812 8.30989 46.654C8.42441 47.2267 8.70635 47.7526 9.12 48.165C9.645 48.705 10.38 49.035 11.205 49.035C9.57 49.035 8.25 50.355 8.25 51.99C8.25 53.625 9.57 54.945 11.205 54.945H10.395C9.33 54.945 8.355 55.725 8.265 56.805C8.145 58.035 9.105 59.07 10.32 59.07H39.615C39.8862 59.0684 40.1536 59.0056 40.3971 58.8862C40.6407 58.7668 40.8541 58.5939 41.0214 58.3804C41.1887 58.1669 41.3056 57.9184 41.3634 57.6534C41.4212 57.3884 41.4183 57.1137 41.355 56.85L39.585 49.5M11.205 43.125H16.095M11.2035 54.9405H16.095M11.2035 49.032H16.095M11.2035 37.218H16.095M33.585 24.885L31.32 15.435C31.05 14.31 31.905 13.215 33.075 13.215H33.495L37.62 13.245L61.68 13.44C62.895 13.44 63.855 14.475 63.735 15.705C63.645 16.785 62.67 17.565 61.605 17.565H60.795C62.43 17.565 63.75 18.9 63.75 20.52C63.75 22.155 62.43 23.475 60.795 23.475C61.62 23.475 62.355 23.805 62.88 24.345C63.2936 24.7574 63.5756 25.2833 63.6901 25.856C63.8046 26.4288 63.7466 27.0227 63.5233 27.5624C63.3 28.1021 62.9215 28.5634 62.4359 28.8879C61.9502 29.2124 61.3791 29.3854 60.795 29.385M60.795 29.385C61.62 29.385 62.355 29.715 62.88 30.255C63.2936 30.6674 63.5756 31.1933 63.6901 31.766C63.8046 32.3388 63.7466 32.9327 63.5233 33.4724C63.3 34.0121 62.9215 34.4734 62.4359 34.7979C61.9502 35.1224 61.3791 35.2954 60.795 35.295H61.605C62.67 35.295 63.645 36.075 63.735 37.155C63.855 38.385 62.895 39.42 61.68 39.42H60.165M60.795 29.385H55.905M60.7965 17.571H55.905M60.7965 23.478H55.905M60.7965 35.292H60.159" stroke="#F24E1E" stroke-width="1.5" stroke-linecap="round" stroke-linejoin="round"/>
<path d="M38.415 35.07L57.945 30.375C59.07 30.105 60.165 30.96 60.165 32.13V61.425C60.165 62.625 59.13 63.585 57.9 63.48C56.82 63.375 56.025 62.415 56.025 61.335V60.525C56.025 61.3067 55.7145 62.0564 55.1617 62.6092C54.6089 63.1619 53.8592 63.4725 53.0775 63.4725C52.2958 63.4725 51.5461 63.1619 50.9933 62.6092C50.4405 62.0564 50.13 61.3067 50.13 60.525C50.13 61.35 49.8 62.085 49.26 62.61C48.8476 63.0236 48.3217 63.3056 47.749 63.4201C47.1762 63.5346 46.5823 63.4766 46.0426 63.2533C45.5029 63.03 45.0416 62.6515 44.7171 62.1658C44.3926 61.6802 44.2196 61.1091 44.22 60.525C44.22 61.35 43.89 62.085 43.35 62.61C42.825 63.15 42.09 63.48 41.265 63.48C39.63 63.48 38.31 62.16 38.31 60.525V61.335C38.31 62.415 37.515 63.375 36.45 63.48C35.22 63.585 34.185 62.625 34.185 61.425V59.07M56.0325 60.5295V55.638M50.124 60.5295V55.638M44.217 60.5295V55.638M38.31 60.5295V59.067" stroke="#F24E1E" stroke-width="1.5" stroke-linecap="round" stroke-linejoin="round"/>
<path d="M44.1285 39.9195C44.1194 38.6958 43.6278 37.525 42.7605 36.6617C41.8932 35.7983 40.7203 35.312 39.4965 35.3085H38.4165V24.999C38.425 24.4356 38.2408 23.8862 37.8943 23.4418C37.5479 22.9974 37.06 22.6847 36.5115 22.5555C36.1585 22.4802 35.7931 22.4847 35.442 22.5687C35.0909 22.6528 34.7631 22.8142 34.4825 23.0412C34.2018 23.2683 33.9754 23.5551 33.8199 23.8809C33.6644 24.2066 33.5836 24.563 33.5835 24.924V35.3085H32.538C31.3106 35.3121 30.1345 35.8012 29.2666 36.6691C28.3987 37.537 27.9096 38.7131 27.906 39.9405L25.434 47.7015C25.3687 47.9091 25.3532 48.1291 25.3889 48.3437C25.4245 48.5584 25.5102 48.7616 25.6391 48.9369C25.768 49.1123 25.9363 49.2548 26.1306 49.3528C26.3248 49.4509 26.5394 49.5019 26.757 49.5015H45.243C45.4605 49.5016 45.6749 49.4505 45.8689 49.3523C46.063 49.2542 46.2311 49.1116 46.3598 48.9363C46.4885 48.7611 46.5741 48.5579 46.6097 48.3434C46.6452 48.1288 46.6298 47.9089 46.5645 47.7015L44.1285 39.9195ZM44.1285 39.9195H27.8715M36 46.794V39.9195M40.257 39.9195L41.517 46.794M31.7415 39.9195L30.4815 46.794" stroke="#F24E1E" stroke-width="1.5" stroke-linecap="round" stroke-linejoin="round"/>
</svg>
