<svg width="77" height="77" viewBox="0 0 77 77" fill="none" xmlns="http://www.w3.org/2000/svg">
<path d="M57.904 38.5754C59.1381 38.5754 60.1386 37.5749 60.1386 36.3408C60.1386 35.1067 59.1381 34.1062 57.904 34.1062C56.6699 34.1062 55.6694 35.1067 55.6694 36.3408C55.6694 37.5749 56.6699 38.5754 57.904 38.5754Z" stroke="#444444" stroke-width="1.60417" stroke-linecap="round" stroke-linejoin="round"/>
<path d="M64.5228 45.6963C66.0041 45.6963 67.205 44.4955 67.205 43.0141C67.205 41.5328 66.0041 40.332 64.5228 40.332C63.0415 40.332 61.8406 41.5328 61.8406 43.0141C61.8406 44.4955 63.0415 45.6963 64.5228 45.6963Z" stroke="#444444" stroke-width="1.60417" stroke-linecap="round" stroke-linejoin="round"/>
<path d="M19.5917 16.7876L37.7252 19.9638M24.94 23.2219L36.7226 25.3105M21.5151 27.8162L35.8868 30.3236M46.4406 51.3269L45.9963 45.8663C44.883 38.4791 36.352 36.6857 33.7132 43.8194C30.792 49.8575 20.3777 55.4993 8.98013 56.895C13.5729 71.7271 38.1278 68.8075 41.4854 64.4987" stroke="#444444" stroke-width="1.60417" stroke-linecap="round" stroke-linejoin="round"/>
<path d="M14.9139 27.9237V30.346M14.9139 34.1206V36.5429M16.8839 32.2341L19.3062 32.3176M10.687 32.3176H13.1093M22.5722 44.8236L24.2261 46.5962M24.2261 40.3833L22.5129 42.0966M18.1319 40.5004L19.8452 42.2137M19.8452 44.7643L18.1319 46.4775M33.7132 43.8194C37.4477 46.9315 41.6362 46.9877 45.9963 45.8663M17.6105 65.9874C26.7447 62.8914 32.3994 58.9243 35.5515 54.3059M35.4681 61.7428C33.6779 64.2196 31.5042 66.2746 27.8227 67.9637M11.3928 61.4556C16.5919 61.3113 20.6585 59.505 24.6063 57.4805M38.038 39.4882L43.1986 11.9414C43.9173 7.17385 49.5303 8.5422 48.441 12.8606L43.0446 40.5694M43.2403 55.809C35.2484 60.3456 42.8457 67.9509 47.4176 65.0008C50.7398 69.4556 57.7949 68.6102 59.4488 65.2511C68.8909 69.4636 71.0598 56.3111 63.294 55.1416C61.5679 49.1084 55.3245 48.0624 51.5948 51.7151C48.4073 50.9291 45.1332 49.6843 43.2403 55.809Z" stroke="#444444" stroke-width="1.60417" stroke-linecap="round" stroke-linejoin="round"/>
</svg>
