<svg width="32" height="32" viewBox="0 0 32 32" fill="none" xmlns="http://www.w3.org/2000/svg">
<path d="M12.6693 5.676C12.4714 5.18142 12.1299 4.75744 11.6889 4.45872C11.2478 4.16 10.7274 4.00023 10.1947 4H6.52667C5.85655 4 5.21389 4.2662 4.74004 4.74004C4.2662 5.21389 4 5.85655 4 6.52667C4 18.3853 13.6133 28 25.4747 28C26.1446 27.9996 26.7869 27.7333 27.2604 27.2595C27.734 26.7857 28 26.1432 28 25.4733V21.8053C28 21.2724 27.8404 20.7517 27.5417 20.3103C27.2429 19.869 26.8188 19.5273 26.324 19.3293L22.8093 17.924C22.363 17.7454 21.8767 17.6907 21.4019 17.7659C20.9271 17.841 20.4814 18.043 20.112 18.3507L19.2053 19.108C18.6939 19.5343 18.0416 19.754 17.3764 19.7239C16.7113 19.6938 16.0815 19.4161 15.6107 18.9453L13.056 16.3867C12.5855 15.9163 12.3079 15.2871 12.2775 14.6225C12.2472 13.9579 12.4663 13.306 12.892 12.7947L13.648 11.888C13.9563 11.5187 14.159 11.0729 14.2346 10.5978C14.3102 10.1227 14.2558 9.63605 14.0773 9.18933L12.6693 5.676Z" stroke="#444444" stroke-width="2" stroke-linecap="round" stroke-linejoin="round"/>
</svg>
