<svg width="38" height="38" viewBox="0 0 38 38" fill="none" xmlns="http://www.w3.org/2000/svg">
<path d="M19 8.3125C16.8862 8.3125 14.8199 8.93931 13.0623 10.1137C11.3048 11.288 9.93496 12.9572 9.12604 14.9101C8.31713 16.863 8.10548 19.0119 8.51786 21.085C8.93024 23.1582 9.94813 25.0625 11.4428 26.5572C12.9375 28.0519 14.8418 29.0698 16.915 29.4821C18.9882 29.8945 21.1371 29.6829 23.0899 28.874C25.0428 28.0651 26.712 26.6952 27.8863 24.9377C29.0607 23.1801 29.6875 21.1138 29.6875 19C29.6844 16.1665 28.5574 13.4499 26.5537 11.4463C24.5501 9.44265 21.8335 8.31564 19 8.3125ZM19 23.75C19.7381 23.7526 20.4665 23.582 21.1267 23.252C21.7869 22.922 22.3605 22.4419 22.8015 21.85C22.8941 21.7226 23.0112 21.6149 23.1458 21.5331C23.2805 21.4514 23.43 21.3973 23.5858 21.3739C23.7416 21.3505 23.9005 21.3584 24.0532 21.397C24.2059 21.4356 24.3494 21.5043 24.4753 21.5989C24.6013 21.6935 24.7071 21.8122 24.7867 21.9482C24.8663 22.0841 24.9181 22.2345 24.939 22.3906C24.9599 22.5468 24.9495 22.7055 24.9085 22.8576C24.8675 23.0097 24.7966 23.1521 24.7 23.2765C23.8024 24.4723 22.5514 25.3554 21.1241 25.8008C19.6968 26.2462 18.1656 26.2313 16.7472 25.7582C15.3289 25.2851 14.0953 24.3778 13.2212 23.1648C12.347 21.9517 11.8767 20.4944 11.8767 18.9993C11.8767 17.5041 12.347 16.0468 13.2212 14.8338C14.0953 13.6207 15.3289 12.7134 16.7472 12.2403C18.1656 11.7672 19.6968 11.7523 21.1241 12.1977C22.5514 12.6431 23.8024 13.5262 24.7 14.722C24.7966 14.8465 24.8675 14.9889 24.9085 15.1409C24.9495 15.293 24.9599 15.4518 24.939 15.6079C24.9181 15.764 24.8663 15.9144 24.7867 16.0504C24.7071 16.1863 24.6013 16.305 24.4753 16.3996C24.3494 16.4943 24.2059 16.5629 24.0532 16.6015C23.9005 16.6401 23.7416 16.648 23.5858 16.6246C23.43 16.6012 23.2805 16.5471 23.1458 16.4654C23.0112 16.3836 22.8941 16.2759 22.8015 16.1485C22.3155 15.5011 21.6722 14.9887 20.9326 14.6598C20.1929 14.3309 19.3815 14.1964 18.5753 14.2693C17.7691 14.3421 16.9949 14.6197 16.3261 15.0758C15.6574 15.532 15.1163 16.1514 14.7542 16.8754C14.3922 17.5994 14.2211 18.4039 14.2574 19.2126C14.2936 20.0212 14.5359 20.8072 14.9612 21.496C15.3866 22.1847 15.9809 22.7533 16.6877 23.1478C17.3946 23.5423 18.1905 23.7496 19 23.75ZM19 3.5625C15.9468 3.5625 12.9621 4.46789 10.4234 6.16419C7.88471 7.86048 5.90604 10.2715 4.73762 13.0923C3.56919 15.9132 3.26347 19.0171 3.85913 22.0117C4.45479 25.0063 5.92507 27.757 8.08405 29.916C10.243 32.0749 12.9937 33.5452 15.9883 34.1409C18.9829 34.7365 22.0868 34.4308 24.9077 33.2624C27.7285 32.094 30.1395 30.1153 31.8358 27.5766C33.5321 25.0379 34.4375 22.0532 34.4375 19C34.4332 14.907 32.8053 10.983 29.9112 8.08881C27.017 5.19466 23.093 3.56682 19 3.5625ZM19 32.0625C16.4165 32.0625 13.891 31.2964 11.7429 29.8611C9.59475 28.4257 7.9205 26.3857 6.93183 23.9988C5.94316 21.6119 5.68448 18.9855 6.1885 16.4516C6.69252 13.9178 7.9366 11.5902 9.76342 9.76342C11.5902 7.93659 13.9178 6.69251 16.4516 6.18849C18.9855 5.68447 21.6119 5.94315 23.9988 6.93182C26.3857 7.92049 28.4258 9.59475 29.8611 11.7429C31.2964 13.891 32.0625 16.4165 32.0625 19C32.0586 22.4632 30.6811 25.7834 28.2323 28.2322C25.7834 30.6811 22.4632 32.0586 19 32.0625Z" fill="#1C1B1B"/>
</svg>
