<svg width="200" height="200" viewBox="0 0 200 200" fill="none" xmlns="http://www.w3.org/2000/svg">
<g clip-path="url(#clip0_6_70)">
<path fill-rule="evenodd" clip-rule="evenodd" d="M100 200C44.7687 200 0 155.231 0 100C0 44.7687 44.7687 0 100 0C155.231 0 200 44.7687 200 100C200 155.231 155.231 200 100 200ZM65.625 95.2375V106.537H76.65V122.837H65.625V133.494H76.65V156.25H89.075V133.494H114.075V122.837H89.075V106.537H104.756C109.533 106.578 114.291 105.925 118.881 104.6C123.231 103.306 127.006 101.35 130.219 98.7063C133.431 96.075 135.969 92.7688 137.831 88.7812C139.694 84.8 140.625 80.1188 140.625 74.7375C140.625 69.3625 139.75 64.7375 137.987 60.8625C136.225 56.9875 133.794 53.7812 130.688 51.2563C127.581 48.7313 123.856 46.8438 119.506 45.6063C114.803 44.3222 109.944 43.6975 105.069 43.75H76.65V95.2375H65.625ZM105.062 95.2375H89.075V55.05H105.069C112.206 55.05 117.825 56.6125 121.913 59.7313C126 62.85 128.05 67.8563 128.05 74.7375C128.05 81.625 126 86.7625 121.913 90.1562C117.825 93.5438 112.206 95.2375 105.069 95.2375H105.062Z" fill="#CCCCCC"/>
</g>
<defs>
<clipPath id="clip0_6_70">
<rect width="200" height="200" fill="white"/>
</clipPath>
</defs>
</svg>
