<svg width="77" height="77" viewBox="0 0 77 77" fill="none" xmlns="http://www.w3.org/2000/svg">
<path d="M4.8125 14.4375C4.8125 11.8848 5.82656 9.43664 7.6316 7.6316C9.43664 5.82656 11.8848 4.8125 14.4375 4.8125H62.5625C65.1152 4.8125 67.5634 5.82656 69.3684 7.6316C71.1734 9.43664 72.1875 11.8848 72.1875 14.4375V62.5625C72.1875 65.1152 71.1734 67.5634 69.3684 69.3684C67.5634 71.1734 65.1152 72.1875 62.5625 72.1875H14.4375C11.8848 72.1875 9.43664 71.1734 7.6316 69.3684C5.82656 67.5634 4.8125 65.1152 4.8125 62.5625V14.4375Z" fill="#D3D3D3"/>
<path d="M35.7424 41.2576L19.25 48.125L13.09 63.91C13.7397 64.5645 14.6444 64.9687 15.6406 64.9687H34.8906C35.2097 64.9687 35.5157 64.842 35.7414 64.6164C35.967 64.3907 36.0937 64.0847 36.0937 63.7656V42.1094C36.0943 41.9512 36.0635 41.7945 36.0032 41.6483C35.9429 41.5022 35.8543 41.3693 35.7424 41.2576ZM42.1094 64.9687H61.3594C62.3166 64.9687 63.2347 64.5885 63.9116 63.9116C64.5885 63.2347 64.9687 62.3166 64.9687 61.3594V42.1094C64.9687 41.7903 64.842 41.4843 64.6164 41.2586C64.3907 41.033 64.0847 40.9062 63.7656 40.9062H42.1094C41.7903 40.9062 41.4843 41.033 41.2586 41.2586C41.033 41.4843 40.9062 41.7903 40.9062 42.1094V63.7656C40.9062 64.0847 41.033 64.3907 41.2586 64.6164C41.4843 64.842 41.7903 64.9687 42.1094 64.9687ZM64.9687 34.8906V15.6406C64.9687 14.6444 64.5645 13.7397 63.91 13.09L45.7187 19.25L41.2576 35.7424C41.3695 35.8541 41.5023 35.9426 41.6485 36.0029C41.7947 36.0631 41.9513 36.094 42.1094 36.0937H63.7656C64.0847 36.0937 64.3907 35.967 64.6164 35.7414C64.842 35.5157 64.9687 35.2097 64.9687 34.8906Z" fill="#83CBFF"/>
<path d="M12.0313 15.6406C12.0313 14.6834 12.4115 13.7653 13.0884 13.0884C13.7653 12.4115 14.6834 12.0313 15.6406 12.0313H34.8906C35.2097 12.0313 35.5157 12.158 35.7414 12.3836C35.967 12.6093 36.0938 12.9153 36.0938 13.2344V34.8906C36.0938 35.2097 35.967 35.5157 35.7414 35.7414C35.5157 35.967 35.2097 36.0938 34.8906 36.0938H13.2344C12.9153 36.0938 12.6093 35.967 12.3836 35.7414C12.158 35.5157 12.0313 35.2097 12.0313 34.8906V15.6406ZM12.0313 42.1094C12.0313 41.7903 12.158 41.4843 12.3836 41.2586C12.6093 41.033 12.9153 40.9062 13.2344 40.9062H34.8906C35.2227 40.9062 35.5235 41.041 35.7424 41.2576L13.0876 63.9124C12.7521 63.5774 12.486 63.1794 12.3047 62.7413C12.1235 62.3031 12.0305 61.8335 12.0313 61.3594V42.1094ZM63.91 13.09C63.5755 12.7543 63.178 12.488 62.7403 12.3063C62.3026 12.1246 61.8333 12.0311 61.3594 12.0313H42.1094C41.7903 12.0313 41.4843 12.158 41.2586 12.3836C41.033 12.6093 40.9063 12.9153 40.9063 13.2344V34.8906C40.9063 35.2227 41.041 35.5235 41.2576 35.7424L63.9124 13.0876" fill="#00A6ED"/>
</svg>
