<svg width="77" height="77" viewBox="0 0 77 77" fill="none" xmlns="http://www.w3.org/2000/svg">
<path fill-rule="evenodd" clip-rule="evenodd" d="M35.3911 41.0699L18.1752 8.68817C18.0763 8.50216 18.015 8.29848 17.9948 8.08878C17.9746 7.87907 17.9959 7.66744 18.0575 7.46597C18.1819 7.05909 18.4629 6.71828 18.8385 6.51854C19.2142 6.31879 19.6538 6.27645 20.0607 6.40085C20.2622 6.46245 20.4496 6.56312 20.6121 6.69713C20.7747 6.83113 20.9093 6.99584 21.0082 7.18186L38.2257 39.5636L40.6672 38.2642C41.4114 37.8686 42.2262 37.6234 43.0651 37.5427C43.904 37.4621 44.7505 37.5474 45.5564 37.794C46.3623 38.0405 47.1118 38.4434 47.762 38.9796C48.4121 39.5158 48.9503 40.1749 49.3458 40.9191L50.3853 42.8746L61.4059 59.0029L47.3887 66.4542L42.5329 56.8565L39.671 58.305L44.5557 67.9621L38.5465 71.156L31.3358 53.0001L30.2979 51.0462C29.9022 50.3021 29.657 49.4874 29.5762 48.6486C29.4954 47.8098 29.5806 46.9632 29.827 46.1574C30.0734 45.3515 30.4761 44.602 31.0122 43.9518C31.5482 43.3015 32.2071 42.7632 32.9512 42.3676L35.3911 41.0699ZM42.1735 41.0988L34.4575 45.2006C34.0855 45.3984 33.756 45.6675 33.488 45.9927C33.22 46.3178 33.0186 46.6925 32.8954 47.0955C32.7722 47.4984 32.7296 47.9217 32.77 48.3411C32.8104 48.7605 32.933 49.1679 33.1309 49.5399L34.1688 51.4937L47.5523 44.3777L46.5128 42.4254C46.315 42.0534 46.0459 41.7239 45.7208 41.4559C45.3956 41.1879 45.0209 40.9865 44.618 40.8633C44.215 40.7401 43.7917 40.6975 43.3723 40.7379C42.9529 40.7783 42.5456 40.9009 42.1735 41.0988Z" fill="#444444"/>
<path d="M28.5028 56.7233C28.2307 56.3964 27.8399 56.191 27.4163 56.1522C26.9928 56.1134 26.5712 56.2444 26.2442 56.5164H26.2474L26.2297 56.5292L26.1303 56.6062C25.9862 56.7141 25.8391 56.8179 25.6891 56.9174C25.2913 57.1821 24.6977 57.543 23.9342 57.9056C21.9715 58.8489 19.8234 59.3437 17.6458 59.3541C17.2204 59.3541 16.8123 59.5232 16.5115 59.824C16.2107 60.1248 16.0417 60.5329 16.0417 60.9583C16.0417 61.3838 16.2107 61.7918 16.5115 62.0926C16.8123 62.3935 17.2204 62.5625 17.6458 62.5625C20.3007 62.5522 22.92 61.9511 25.3137 60.8027C26.0604 60.4492 26.7809 60.0428 27.4697 59.5867C27.7276 59.4142 27.9791 59.2323 28.2237 59.0413L28.2718 59.0044L28.2879 58.9916L28.2927 58.9852H28.2959L28.2975 58.982C28.6241 58.7096 28.8292 58.3187 28.8678 57.8952C28.9063 57.4716 28.775 57.0501 28.5028 56.7233ZM31.8138 64.8805C31.9308 65.0558 32.012 65.2523 32.053 65.459C32.094 65.6657 32.0938 65.8784 32.0525 66.085C32.0113 66.2916 31.9297 66.4881 31.8125 66.6632C31.6953 66.8383 31.5448 66.9886 31.3695 67.1055L31.3663 67.1087L31.3598 67.1119L31.3438 67.1215L31.2941 67.1536C31.0163 67.3303 30.7345 67.5004 30.4487 67.6637C29.8856 67.9862 29.0851 68.4145 28.1226 68.8412C26.2297 69.6834 23.5828 70.5833 20.8542 70.5833C20.4287 70.5833 20.0207 70.4143 19.7198 70.1135C19.419 69.8126 19.25 69.4046 19.25 68.9791C19.25 68.5537 19.419 68.1457 19.7198 67.8448C20.0207 67.544 20.4287 67.375 20.8542 67.375C22.9364 67.375 25.1052 66.6707 26.8201 65.9088C27.7135 65.5101 28.5804 65.0547 29.4156 64.5452C29.4624 64.5177 29.5084 64.4888 29.5536 64.4586L29.5856 64.4393L29.5888 64.4361C29.7641 64.3192 29.9607 64.2379 30.1674 64.197C30.374 64.156 30.5868 64.1562 30.7934 64.1974C31 64.2387 31.1965 64.3203 31.3715 64.4375C31.5466 64.5547 31.6969 64.7052 31.8138 64.8805Z" fill="#444444"/>
</svg>
