<svg width="200" height="200" viewBox="0 0 200 200" fill="none" xmlns="http://www.w3.org/2000/svg">
<path fill-rule="evenodd" clip-rule="evenodd" d="M153.442 56.8459L143.75 25.4625L134.058 56.8459L115.308 65.775L134.142 74.7417L143.75 102.2L153.358 74.7417L172.192 65.775L153.442 56.8459ZM140.942 62.7959L143.75 53.7042L146.558 62.8L152.808 65.775L146.642 68.7125L143.75 76.9709L140.858 68.7125L134.692 65.775L140.942 62.7959Z" fill="#CCCCCC"/>
<path d="M79.1667 66.6667L83.3333 50L87.5 66.6667L100 70.8333L87.5 75L83.3333 91.6667L79.1667 75L66.6667 70.8333L79.1667 66.6667Z" fill="#CCCCCC"/>
<path fill-rule="evenodd" clip-rule="evenodd" d="M54.1667 165.625V166.65C54.1667 168.86 53.2887 170.98 51.7259 172.543C50.1631 174.105 48.0435 174.983 45.8333 174.983H33.3333C31.1232 174.983 29.0036 174.105 27.4408 172.543C25.878 170.98 25 168.86 25 166.65V120.838C25 118.627 25.878 116.508 27.4408 114.945C29.0036 113.382 31.1232 112.504 33.3333 112.504H45.8333C47.7101 112.503 49.5322 113.136 51.0045 114.3C52.4769 115.464 53.5132 117.09 53.9458 118.917C59.4625 116.929 65.9083 114.563 67.8792 113.663C69.5542 112.9 71.4875 112.642 73.0958 112.546C74.7557 112.465 76.419 112.495 78.075 112.633C79.9293 112.781 81.7757 113.015 83.6083 113.333L83.7042 113.35L83.7333 113.354H83.7458L83.8208 113.371L111.696 119.621L111.867 119.679L111.912 119.696L112.104 119.754C113.307 120.107 114.521 120.417 115.746 120.683C118.142 121.204 121.162 121.692 123.975 121.692C126.575 121.692 129.267 122.663 130.7 125.296C131.933 127.554 131.646 130.038 131.188 131.754C130.608 133.896 129.417 136.146 127.904 138.058C129.946 137.288 132.183 136.375 134.583 135.392L135.096 135.183C141.858 132.404 149.875 129.113 156.95 127.946C165.033 126.608 170.912 129.542 173.579 134.746C175.954 139.379 175.404 145.458 171.829 149.121C170.933 150.042 169.567 151.008 168.196 151.896C166.729 152.85 164.925 153.921 162.921 155.063C158.317 157.641 153.656 160.116 148.942 162.488C139.058 167.5 128.7 172.375 125.408 173.579C121.592 174.975 117.492 175.108 113.554 174.904C111.176 174.757 108.802 174.555 106.433 174.3C104.699 174.12 102.963 173.961 101.225 173.821C93.1917 173.213 87.025 171.25 81.35 169.446L80.6583 169.225C74.7917 167.367 69.3333 165.713 62.1042 165.421C60.4542 165.354 57.1542 165.483 54.1667 165.625ZM71.3333 121.242C71.6042 121.117 72.3125 120.938 73.575 120.863C74.7583 120.792 76.1083 120.838 77.4292 120.938C79.0096 121.065 80.5834 121.263 82.1458 121.533H82.1583L109.521 127.671L109.708 127.729C111.116 128.143 112.538 128.508 113.971 128.821C116.408 129.354 119.679 129.913 123.008 130.008C122.711 130.81 122.312 131.571 121.821 132.271C121.154 133.238 120.425 133.983 119.825 134.413C118.092 135.654 116.692 136.171 115.842 136.392C115.552 136.471 115.257 136.527 114.958 136.558H114.867L92.525 136.292L91.7333 144.558L91.9542 144.6L92.5917 144.713L94.9083 145.121C96.8542 145.463 99.525 145.921 102.433 146.396C108.158 147.329 115.058 148.363 118.975 148.6C121.683 148.767 124.833 147.933 127.762 146.954C130.817 145.933 134.271 144.521 137.746 143.096C144.9 140.163 152.187 137.175 158.308 136.163C163.6 135.288 165.488 137.221 166.163 138.542C167.133 140.438 166.608 142.542 165.862 143.3C165.683 143.488 165.029 144.017 163.662 144.904C162.387 145.725 160.742 146.713 158.808 147.808C154.318 150.322 149.772 152.737 145.175 155.05C135.208 160.104 125.292 164.742 122.542 165.75C120.317 166.567 117.562 166.763 113.983 166.579C111.875 166.455 109.77 166.276 107.671 166.042C105.734 165.838 103.795 165.66 101.854 165.508C94.8042 164.975 89.4458 163.271 83.7 161.446L83.1792 161.279C77.2292 159.392 70.8625 157.429 62.4417 157.092C60.5458 157.017 57.1708 157.133 54.1667 157.275V127.688C60.025 125.592 68.6958 122.446 71.3333 121.242ZM45.8333 120.833H33.3333V166.646H45.8333V120.833Z" fill="#CCCCCC"/>
</svg>
