<svg width="77" height="77" viewBox="0 0 77 77" fill="none" xmlns="http://www.w3.org/2000/svg">
<path d="M41.7084 36.0938C41.7084 36.0938 41.7084 20.8542 41.7084 16.0417C41.7084 11.2292 44.9167 6.41669 51.3334 6.41669C57.75 6.41669 60.9584 11.2292 60.9584 16.0417C60.9584 20.8542 60.9584 54.5417 60.9584 54.5417" stroke="black" stroke-width="6.41667"/>
<path d="M52.5365 54.5417H69.3802L70.5834 64.1667H51.3334L52.5365 54.5417Z" fill="#2F88FF" stroke="black" stroke-width="6.41667" stroke-linecap="round" stroke-linejoin="round"/>
<path d="M16.0417 64.1667H41.5261C41.6267 64.1667 41.7084 64.085 41.7084 63.9844V37.3043C41.7084 25.5613 32.1887 16.0417 20.4458 16.0417C15.3556 16.0417 11.2292 20.1681 11.2292 25.2583V46.5209" stroke="black" stroke-width="6.41667" stroke-linecap="round" stroke-linejoin="round"/>
<path d="M16.0417 64.1667C21.3574 64.1667 25.6667 59.8574 25.6667 54.5417C25.6667 49.2259 21.3574 44.9167 16.0417 44.9167C10.7259 44.9167 6.41669 49.2259 6.41669 54.5417C6.41669 59.8574 10.7259 64.1667 16.0417 64.1667Z" fill="#2F88FF" stroke="black" stroke-width="6.41667"/>
<path d="M22.4584 16.0417V46.5209" stroke="black" stroke-width="6.41667" stroke-linecap="round" stroke-linejoin="round"/>
</svg>
