<svg width="77" height="77" viewBox="0 0 77 77" fill="none" xmlns="http://www.w3.org/2000/svg">
<path d="M58.1992 53.5792C55.2796 58.4237 51.59 56.8837 48.125 54.8304C44.66 52.7771 41.3875 50.3067 39.3021 53.2262C37.0242 55.7287 38.7888 59.7392 39.6871 63.2683C40.5854 66.8296 40.6496 69.9096 34.9708 70.5833C30.4792 69.9737 30.7358 66.2521 31.4738 62.3058C32.2117 58.3596 33.3667 54.1887 30.4792 52.7129C28.1692 51.1729 26.565 53.8358 24.5438 56.4667C22.4583 59.0654 20.0842 61.6 16.17 59.7392C12.6408 56.8196 13.9883 55.1192 15.8492 52.9375C17.71 50.7558 20.1163 47.8362 18.7367 42.7029C18.1592 40.6175 15.2717 41.0987 12.4163 41.0346C9.625 40.9704 6.80167 40.3929 6.51292 36.2221C6.28834 33.6875 8.18125 32.6608 10.1383 31.8587C12.1275 31.0567 14.1488 30.4792 14.1808 28.4579C14.2771 26.5008 12.9617 25.1212 12.1275 23.6775C11.2933 22.2337 10.9404 20.7258 12.9296 18.48C16.2983 15.7208 18.9933 18.0629 21.6883 20.5975C24.3833 23.1321 27.0463 25.795 30.3508 23.7096C32.9817 21.9771 30.5754 18.9292 28.7146 15.9454C26.8538 12.9617 25.5383 10.1062 30.3508 8.79082C34.5217 7.63582 36.1258 10.4912 37.5696 13.7958C39.0454 17.1004 40.3288 20.8542 43.8579 21.5279C48.895 22.4583 52.5525 16.555 56.0496 11.8708C59.5467 7.18666 62.9796 3.68957 67.375 9.46457C72.1875 15.5283 67.5996 18.3517 62.2417 20.8542C56.8838 23.1962 50.7238 25.2496 52.1996 29.7733C53.0658 32.4042 55.8892 30.9604 58.8729 29.9658C61.8246 28.9712 65.0008 28.4258 66.5408 32.9496C68.1771 37.73 64.295 38.8208 59.9317 39.27C55.5683 39.7192 50.6917 39.5267 50.3708 41.7083C50.0179 43.9862 52.9375 44.9167 55.4721 46.2642C58.0067 47.6437 60.1562 49.4725 58.1992 53.5792ZM65.7708 60.9583C62.7229 60.9583 61.1508 58.5842 61.1508 56.1458C61.1508 53.7075 62.6908 51.3333 65.7708 51.3333C68.9792 51.3333 70.5833 53.7075 70.5833 56.1458C70.5833 58.5842 68.9792 60.9583 65.7708 60.9583Z" fill="#444444"/>
</svg>
