<svg width="32" height="32" viewBox="0 0 32 32" fill="none" xmlns="http://www.w3.org/2000/svg">
<g clip-path="url(#clip0_7_316)">
<path fill-rule="evenodd" clip-rule="evenodd" d="M14.6667 2.66667C12.8985 2.66667 11.2029 3.36905 9.95261 4.61929C8.70237 5.86954 7.99999 7.56523 7.99999 9.33334C7.99999 11.1014 8.70237 12.7971 9.95261 14.0474C11.2029 15.2976 12.8985 16 14.6667 16C16.4348 16 18.1305 15.2976 19.3807 14.0474C20.6309 12.7971 21.3333 11.1014 21.3333 9.33334C21.3333 7.56523 20.6309 5.86954 19.3807 4.61929C18.1305 3.36905 16.4348 2.66667 14.6667 2.66667ZM14.6667 17.3333C11.4733 17.3333 8.56666 18.2587 6.42932 19.5627C5.36266 20.2133 4.45066 20.9813 3.79199 21.816C3.14399 22.6347 2.66666 23.6173 2.66666 24.6667C2.66666 25.7933 3.21466 26.6813 4.00399 27.3147C4.75066 27.9147 5.73599 28.312 6.78266 28.5893C8.88666 29.1453 11.6947 29.3333 14.6667 29.3333C14.9733 29.3333 15.28 29.3307 15.58 29.3267C15.8033 29.3236 16.0223 29.2645 16.2168 29.1548C16.4113 29.0451 16.5751 28.8882 16.6932 28.6987C16.8114 28.5092 16.88 28.293 16.8928 28.0701C16.9056 27.8471 16.8623 27.6245 16.7667 27.4227C16.2599 26.3529 15.998 25.1837 16 24C16 22.3307 16.5107 20.784 17.3827 19.5027C17.5123 19.3123 17.5903 19.0915 17.6093 18.862C17.6282 18.6324 17.5873 18.4018 17.4906 18.1928C17.394 17.9837 17.2448 17.8032 17.0576 17.669C16.8704 17.5347 16.6517 17.4512 16.4227 17.4267C15.8493 17.3653 15.2627 17.3333 14.6667 17.3333ZM25.152 18.6627C25.0346 18.4612 24.8665 18.2941 24.6643 18.178C24.4622 18.0618 24.2331 18.0007 24 18.0007C23.7669 18.0007 23.5378 18.0618 23.3357 18.178C23.1335 18.2941 22.9654 18.4612 22.848 18.6627L21.6347 20.7453L19.28 21.2547C19.052 21.304 18.8409 21.4122 18.6679 21.5686C18.4948 21.725 18.3658 21.9241 18.2938 22.146C18.2217 22.3678 18.2091 22.6047 18.2572 22.8329C18.3053 23.0612 18.4125 23.2728 18.568 23.4467L20.1733 25.244L19.9307 27.6413C19.9071 27.8733 19.9449 28.1074 20.0401 28.3203C20.1353 28.5331 20.2847 28.7173 20.4733 28.8544C20.662 28.9915 20.8832 29.0767 21.1151 29.1015C21.3469 29.1264 21.5813 29.09 21.7947 28.996L24 28.0227L26.2053 28.996C26.4187 29.09 26.653 29.1264 26.8849 29.1015C27.1167 29.0767 27.338 28.9915 27.5266 28.8544C27.7153 28.7173 27.8647 28.5331 27.9599 28.3203C28.0551 28.1074 28.0928 27.8733 28.0693 27.6413L27.8267 25.2427L29.432 23.4467C29.5875 23.2728 29.6946 23.0612 29.7428 22.8329C29.7909 22.6047 29.7783 22.3678 29.7062 22.146C29.6342 21.9241 29.5052 21.725 29.3321 21.5686C29.159 21.4122 28.948 21.304 28.72 21.2547L26.3653 20.7453L25.152 18.6627Z" fill="#F24E1E"/>
</g>
<defs>
<clipPath id="clip0_7_316">
<rect width="32" height="32" fill="white"/>
</clipPath>
</defs>
</svg>
