<svg width="200" height="200" viewBox="0 0 200 200" fill="none" xmlns="http://www.w3.org/2000/svg">
<g opacity="0.2">
<path d="M185 110C185 128.565 177.625 146.37 164.497 159.497C151.37 172.625 133.565 180 115 180C96.4348 180 78.6301 172.625 65.5025 159.497C52.375 146.37 45 128.565 45 110C45 91.4348 52.375 73.6301 65.5025 60.5025C78.6301 47.375 96.4348 40 115 40C133.565 40 151.37 47.375 164.497 60.5025C177.625 73.6301 185 91.4348 185 110Z" fill="#CCCCCC"/>
<path fill-rule="evenodd" clip-rule="evenodd" d="M115 160C128.261 160 140.979 154.732 150.355 145.355C159.732 135.979 165 123.261 165 110C165 96.7392 159.732 84.0215 150.355 74.6447C140.979 65.2678 128.261 60 115 60C101.739 60 89.0215 65.2678 79.6447 74.6447C70.2678 84.0215 65 96.7392 65 110C65 123.261 70.2678 135.979 79.6447 145.355C89.0215 154.732 101.739 160 115 160ZM115 180C124.193 180 133.295 178.189 141.788 174.672C150.281 171.154 157.997 165.998 164.497 159.497C170.998 152.997 176.154 145.281 179.672 136.788C183.189 128.295 185 119.193 185 110C185 100.807 183.189 91.7049 179.672 83.2122C176.154 74.7194 170.998 67.0026 164.497 60.5025C157.997 54.0024 150.281 48.8463 141.788 45.3284C133.295 41.8106 124.193 40 115 40C96.4348 40 78.6301 47.375 65.5025 60.5025C52.375 73.6301 45 91.4348 45 110C45 128.565 52.375 146.37 65.5025 159.497C78.6301 172.625 96.4348 180 115 180Z" fill="#CCCCCC"/>
</g>
<path fill-rule="evenodd" clip-rule="evenodd" d="M56.04 54.5C49.1277 61.3105 43.8439 69.595 40.5832 78.7345C37.3226 87.874 36.1694 97.6322 37.21 107.28C37.3068 108.576 36.8953 109.859 36.0626 110.856C35.2299 111.854 34.0415 112.488 32.7492 112.625C31.4568 112.761 30.1621 112.389 29.1393 111.588C28.1165 110.786 27.4461 109.618 27.27 108.33C26.0698 97.1869 27.4025 85.9167 31.1688 75.3609C34.935 64.8052 41.0373 55.2367 49.02 47.37C78.39 18.4 125.77 18.87 154.84 48.35C183.91 77.82 183.72 125.2 154.34 154.17C140.741 167.605 122.484 175.278 103.37 175.59C96.1436 175.719 88.9362 174.806 81.97 172.88C80.6917 172.527 79.6058 171.681 78.9513 170.528C78.2968 169.374 78.1273 168.008 78.48 166.73C78.8327 165.452 79.6788 164.366 80.8322 163.711C81.9855 163.057 83.3517 162.887 84.63 163.24C90.6716 164.911 96.9226 165.702 103.19 165.59C119.739 165.326 135.548 158.684 147.32 147.05C172.73 121.99 172.94 80.95 147.72 55.37C122.5 29.79 81.45 29.44 56.04 54.5Z" fill="#CCCCCC"/>
<path fill-rule="evenodd" clip-rule="evenodd" d="M35.94 113.63C35.5027 114.12 34.9732 114.519 34.3818 114.804C33.7903 115.089 33.1484 115.255 32.4928 115.292C31.8373 115.329 31.1808 115.237 30.5609 115.021C29.941 114.804 29.3698 114.467 28.88 114.03L11.68 98.7301C11.1513 98.3056 10.7144 97.7781 10.3959 97.1795C10.0774 96.5809 9.88401 95.9238 9.82743 95.2481C9.77086 94.5725 9.8523 93.8924 10.0668 93.2492C10.2813 92.606 10.6244 92.0131 11.0752 91.5066C11.526 91.0002 12.075 90.5907 12.6891 90.3031C13.3031 90.0155 13.9691 89.8557 14.6468 89.8336C15.3245 89.8115 15.9996 89.9274 16.631 90.1743C17.2625 90.4213 17.8371 90.7941 18.32 91.27L35.52 106.57C36.0113 107.006 36.4118 107.534 36.6988 108.125C36.9858 108.716 37.1536 109.357 37.1926 110.013C37.2316 110.669 37.141 111.326 36.9261 111.946C36.7112 112.567 36.3761 113.139 35.94 113.63Z" fill="#CCCCCC"/>
<path fill-rule="evenodd" clip-rule="evenodd" d="M28.2 113C28.594 113.525 29.0875 113.968 29.6525 114.302C30.2175 114.637 30.8429 114.857 31.4929 114.95C32.1429 115.043 32.8048 115.007 33.4409 114.844C34.077 114.681 34.6747 114.394 35.2 114L55.2 99C56.2609 98.2043 56.9622 97.0199 57.1497 95.7071C57.3373 94.3944 56.9956 93.0609 56.2 92C55.4043 90.9391 54.2199 90.2378 52.9071 90.0502C51.5943 89.8627 50.2609 90.2044 49.2 91L29.2 106C28.1391 106.796 27.4378 107.98 27.2502 109.293C27.0627 110.606 27.4043 111.939 28.2 113ZM100 65C101.326 65 102.598 65.5268 103.536 66.4645C104.473 67.4021 105 68.6739 105 70V105C105 106.326 104.473 107.598 103.536 108.536C102.598 109.473 101.326 110 100 110C98.6739 110 97.4021 109.473 96.4645 108.536C95.5268 107.598 95 106.326 95 105V70C95 68.6739 95.5268 67.4021 96.4645 66.4645C97.4021 65.5268 98.6739 65 100 65Z" fill="#CCCCCC"/>
<path fill-rule="evenodd" clip-rule="evenodd" d="M135 105C135 106.326 134.473 107.598 133.536 108.536C132.598 109.473 131.326 110 130 110H100C98.6739 110 97.4021 109.473 96.4645 108.536C95.5268 107.598 95 106.326 95 105C95 103.674 95.5268 102.402 96.4645 101.464C97.4021 100.527 98.6739 100 100 100H130C131.326 100 132.598 100.527 133.536 101.464C134.473 102.402 135 103.674 135 105Z" fill="#CCCCCC"/>
</svg>
