<svg width="77" height="77" viewBox="0 0 77 77" fill="none" xmlns="http://www.w3.org/2000/svg">
<path d="M22.4583 38.5V41.7083H54.5416V38.5C54.5416 35.9512 55.5526 33.5064 57.3528 31.702C59.153 29.8976 61.5954 28.8809 64.1442 28.875C64.1407 28.0359 64.0656 27.1987 63.9196 26.3725C63.4245 23.8828 62.2022 21.5959 60.4073 19.801C58.6124 18.0061 56.3255 16.7838 53.8358 16.2887C52.5974 16.0417 51.1087 16.0417 48.125 16.0417H28.875C25.8912 16.0417 24.4026 16.0417 23.1641 16.2887C20.6745 16.7838 18.3876 18.0061 16.5927 19.801C14.7978 21.5959 13.5755 23.8828 13.0804 26.3725C12.9343 27.1987 12.8592 28.0359 12.8558 28.875C15.4046 28.8809 17.847 29.8976 19.6472 31.702C21.4473 33.5064 22.4583 35.9512 22.4583 38.5Z" fill="#444444"/>
<path d="M59.1745 57.75H17.8255C16.9551 57.7502 16.0876 57.6512 15.2396 57.4548V60.9583C15.2396 61.5965 14.9861 62.2086 14.5348 62.6598C14.0836 63.1111 13.4715 63.3646 12.8334 63.3646C12.1952 63.3646 11.5831 63.1111 11.1319 62.6598C10.6806 62.2086 10.4271 61.5965 10.4271 60.9583V55.0261C9.16849 53.9562 8.15783 52.6251 7.46529 51.1254C6.77276 49.6256 6.41494 47.9931 6.41669 46.3412V38.5C6.41669 36.7982 7.09273 35.1661 8.29609 33.9627C9.49945 32.7594 11.1316 32.0833 12.8334 32.0833C14.5352 32.0833 16.1673 32.7594 17.3706 33.9627C18.574 35.1661 19.25 36.7982 19.25 38.5V42.35C19.25 43.0307 19.5204 43.6836 20.0018 44.1649C20.4831 44.6463 21.136 44.9167 21.8167 44.9167H55.1834C55.8641 44.9167 56.5169 44.6463 56.9983 44.1649C57.4796 43.6836 57.75 43.0307 57.75 42.35V38.5C57.75 36.7982 58.4261 35.1661 59.6294 33.9627C60.8328 32.7594 62.4649 32.0833 64.1667 32.0833C65.8685 32.0833 67.5006 32.7594 68.704 33.9627C69.9073 35.1661 70.5834 36.7982 70.5834 38.5V46.3412C70.5851 47.9931 70.2273 49.6256 69.5348 51.1254C68.8422 52.6251 67.8316 53.9562 66.5729 55.0261V60.9583C66.5729 61.5965 66.3194 62.2086 65.8682 62.6598C65.4169 63.1111 64.8049 63.3646 64.1667 63.3646C63.5285 63.3646 62.9165 63.1111 62.4652 62.6598C62.014 62.2086 61.7604 61.5965 61.7604 60.9583V57.4548C60.9125 57.6512 60.0449 57.7502 59.1745 57.75Z" fill="#444444"/>
</svg>
