<svg width="32" height="32" viewBox="0 0 32 32" fill="none" xmlns="http://www.w3.org/2000/svg">
<path d="M25.6 14.848C25.6 13.504 24.512 12.8 23.04 12.8H18.752C19.072 11.648 19.2 10.56 19.2 9.6C19.2 5.88799 18.176 5.12 17.28 5.12C16.704 5.12 16.256 5.184 15.68 5.504C15.488 5.632 15.424 5.76 15.36 5.952L14.72 9.40799C14.016 11.2 12.288 12.8 10.88 13.888V23.04C11.392 23.04 11.904 23.296 12.544 23.616C13.248 23.936 13.952 24.32 14.72 24.32H20.8C22.08 24.32 23.04 23.296 23.04 22.4C23.04 22.208 23.04 22.08 22.976 21.952C23.744 21.632 24.32 20.992 24.32 20.16C24.32 19.776 24.256 19.456 24.128 19.136C24.64 18.816 25.088 18.24 25.088 17.6C25.088 17.216 24.896 16.832 24.704 16.512C25.216 16.128 25.6 15.488 25.6 14.848ZM24.256 14.848C24.256 15.68 23.424 15.744 23.296 16.128C23.168 16.576 23.808 16.704 23.808 17.472C23.808 18.24 22.848 18.24 22.72 18.688C22.592 19.2 23.04 19.328 23.04 20.096V20.224C22.912 20.864 21.952 20.928 21.76 21.184C21.568 21.504 21.76 21.632 21.76 22.336C21.76 22.72 21.312 22.976 20.8 22.976H14.72C14.208 22.976 13.696 22.72 13.056 22.4C12.544 22.144 12.032 21.888 11.52 21.76V15.04C13.12 13.824 15.168 12.032 15.936 9.792V9.664L16.512 6.464C16.768 6.4 16.96 6.4 17.28 6.4C17.408 6.4 17.92 7.168 17.92 9.6C17.92 10.56 17.728 11.584 17.408 12.8H17.28C16.896 12.8 16.64 13.056 16.64 13.44C16.64 13.824 16.896 14.08 17.28 14.08H23.04C23.68 14.08 24.256 14.4 24.256 14.848Z" fill="#F24E1E"/>
<path d="M10.24 24.32H6.4C5.696 24.32 5.12 23.744 5.12 23.04V14.08C5.12 13.376 5.696 12.8 6.4 12.8H10.24C10.944 12.8 11.52 13.376 11.52 14.08V23.04C11.52 23.744 10.944 24.32 10.24 24.32ZM6.4 14.08V23.04H10.24V14.08H6.4Z" fill="#F24E1E"/>
</svg>
