<svg width="32" height="32" viewBox="0 0 32 32" fill="none" xmlns="http://www.w3.org/2000/svg">
<path d="M16 30C8.28 30 2 23.72 2 16C2 8.28 8.28 2 16 2C23.72 2 30 8.28 30 16C30 23.72 23.72 30 16 30ZM16 4C9.38 4 4 9.38 4 16C4 22.62 9.38 28 16 28C22.62 28 28 22.62 28 16C28 9.38 22.62 4 16 4Z" fill="#F24E1E"/>
<path d="M13 26C12.44 26 12 25.56 12 25V18H9C8.44 18 8 17.56 8 17C8 16.44 8.44 16 9 16H12V9C12 8.44 12.44 8 13 8H19C20.3261 8 21.5979 8.52678 22.5355 9.46447C23.4732 10.4021 24 11.6739 24 13C24 14.3261 23.4732 15.5979 22.5355 16.5355C21.5979 17.4732 20.3261 18 19 18H14V25C14 25.56 13.56 26 13 26ZM14 16H19C20.66 16 22 14.66 22 13C22 11.34 20.66 10 19 10H14V16Z" fill="#F24E1E"/>
<path d="M19 22H9C8.44 22 8 21.56 8 21C8 20.44 8.44 20 9 20H19C19.56 20 20 20.44 20 21C20 21.56 19.56 22 19 22Z" fill="#F24E1E"/>
</svg>
