<svg width="33" height="33" viewBox="0 0 33 33" fill="none" xmlns="http://www.w3.org/2000/svg">
<path d="M10.9145 22.3454L22.3431 10.9168M13.8951 2.97165C14.6675 2.34315 15.633 2 16.6288 2C17.6246 2 18.5901 2.34315 19.3625 2.97165L20.1237 3.59108L21.0905 3.43565C22.0739 3.27731 23.0818 3.46272 23.9444 3.96066C24.8071 4.4586 25.4718 5.23864 25.8265 6.16937L26.1739 7.08365L27.0905 7.43337C28.0217 7.7877 28.8022 8.45221 29.3006 9.3149C29.799 10.1776 29.9847 11.1857 29.8265 12.1694L29.6711 13.1362L30.2882 13.8974C30.9167 14.6698 31.2599 15.6352 31.2599 16.6311C31.2599 17.6269 30.9167 18.5924 30.2882 19.3648L29.6711 20.1259L29.8265 21.0928C29.9849 22.0762 29.7994 23.0841 29.3015 23.9467C28.8036 24.8094 28.0235 25.4741 27.0928 25.8288L26.1785 26.1785L25.8288 27.0928C25.4741 28.0235 24.8094 28.8036 23.9467 29.3015C23.0841 29.7994 22.0762 29.9849 21.0928 29.8265L20.1259 29.6711L19.3648 30.2905C18.5923 30.919 17.6269 31.2622 16.6311 31.2622C15.6352 31.2622 14.6698 30.919 13.8974 30.2905L13.1362 29.6734L12.1694 29.8265C11.186 29.9849 10.1781 29.7994 9.31544 29.3015C8.45279 28.8036 7.78811 28.0235 7.43337 27.0928L7.08365 26.1785L6.16937 25.8288C5.23864 25.4741 4.4586 24.8094 3.96066 23.9467C3.46272 23.0841 3.27731 22.0762 3.43565 21.0928L3.59108 20.1259L2.97165 19.3648C2.34315 18.5924 2 17.6269 2 16.6311C2 15.6352 2.34315 14.6698 2.97165 13.8974L3.5888 13.1362L3.43565 12.1694C3.27716 11.1863 3.46224 10.1786 3.95974 9.31597C4.45724 8.45336 5.23677 7.78851 6.16708 7.43337L7.08137 7.08594L7.43108 6.16937C7.78542 5.23821 8.44992 4.45767 9.31261 3.95929C10.1753 3.46091 11.1834 3.27517 12.1671 3.43337L13.1339 3.5888L13.8951 2.97165Z" stroke="#F24E1E" stroke-width="2.28571" stroke-linecap="round" stroke-linejoin="round"/>
<path d="M12.0574 13.2025C12.3605 13.2025 12.6512 13.0821 12.8655 12.8678C13.0798 12.6534 13.2002 12.3628 13.2002 12.0597C13.2002 11.7565 13.0798 11.4659 12.8655 11.2515C12.6512 11.0372 12.3605 10.9168 12.0574 10.9168C11.7543 10.9168 11.4636 11.0372 11.2493 11.2515C11.0349 11.4659 10.9145 11.7565 10.9145 12.0597C10.9145 12.3628 11.0349 12.6534 11.2493 12.8678C11.4636 13.0821 11.7543 13.2025 12.0574 13.2025ZM21.2002 22.3454C21.5033 22.3454 21.794 22.225 22.0084 22.0106C22.2227 21.7963 22.3431 21.5056 22.3431 21.2025C22.3431 20.8994 22.2227 20.6087 22.0084 20.3944C21.794 20.1801 21.5033 20.0597 21.2002 20.0597C20.8971 20.0597 20.6064 20.1801 20.3921 20.3944C20.1778 20.6087 20.0574 20.8994 20.0574 21.2025C20.0574 21.5056 20.1778 21.7963 20.3921 22.0106C20.6064 22.225 20.8971 22.3454 21.2002 22.3454Z" stroke="#F24E1E" stroke-width="2.28571" stroke-linecap="round" stroke-linejoin="round"/>
</svg>
