<svg width="32" height="32" viewBox="0 0 32 32" fill="none" xmlns="http://www.w3.org/2000/svg">
<path d="M15.9956 4.84711C11.0862 4.84711 7.10669 6.83734 7.10669 9.29156L7.11825 9.41378C8.4298 22.9827 15.4178 26.7778 15.9618 27.0533L15.9956 27.0698C15.9956 27.0698 23.5511 23.5142 24.8845 9.292C25.1134 6.84845 20.9049 4.84711 15.9956 4.84711ZM15.9965 24.3933L15.9698 24.38C15.5351 24.1596 9.95069 21.1276 8.90269 10.2849L8.89336 10.1871C8.89336 8.22578 12.0734 6.636 15.9965 6.636C19.9191 6.636 23.2827 8.23423 23.0996 10.1871C22.0342 21.552 15.9965 24.3933 15.9965 24.3933Z" fill="#D0CFCE"/>
<path d="M15.5556 7.95823L16.8889 9.736L15.5556 11.5138L16.8889 13.2916L15.5556 15.0693L16.8889 16.8471L15.5556 18.6249L16.8889 20.4027L15.5556 22.1804L16 24.5182C16 24.5182 9.33336 19.6293 8.88892 10.296C8.88892 10.296 8.88892 6.74045 16 6.74045L15.5556 7.95823Z" fill="#EA5A47"/>
<path d="M16 6.74045L15.5555 7.95823L16.8889 9.736L15.5555 11.5138L16.8889 13.2916L15.5555 15.0693L16.8889 16.8471L15.5555 18.6249L16.8889 20.4027L15.5555 22.1804L16.0009 24.3929C16.0009 24.3929 22.1538 20.4116 23.104 10.1867C23.104 10.1867 22.7333 7.08889 16 6.74045Z" fill="#D22F27"/>
<path d="M15.9666 27.0533C15.4222 26.7769 8.43464 22.9822 7.12264 9.41334L7.11108 9.29156C7.11108 6.83734 11.0906 4.84711 16 4.84711C20.9093 4.84711 25.1182 6.848 24.8889 9.29156C23.5555 23.5138 16 27.0693 16 27.0693L15.9666 27.0533Z" stroke="black" stroke-width="0.888889" stroke-miterlimit="10" stroke-linecap="round" stroke-linejoin="round"/>
<path d="M15.9742 24.3796C15.5395 24.1591 9.9551 21.1271 8.90754 10.2844L8.89777 10.1867C8.89777 8.22534 12.0778 6.63512 16.0009 6.63512C19.924 6.63512 23.2871 8.23378 23.104 10.1867C22.0387 21.5516 16.0009 24.3929 16.0009 24.3929L15.9742 24.3796Z" stroke="black" stroke-width="0.888889" stroke-miterlimit="10" stroke-linecap="round" stroke-linejoin="round"/>
</svg>
