<svg width="92" height="92" viewBox="0 0 92 92" fill="none" xmlns="http://www.w3.org/2000/svg">
<path d="M42.9142 43.3933H14.8733V13.5125C14.8733 12.0558 16.0617 10.8867 17.5183 10.8867C18.975 10.8867 20.1633 12.0558 20.1633 13.5125V14.6625C20.1633 13.6636 20.5601 12.7057 21.2664 11.9994C21.9727 11.293 22.9307 10.8962 23.9296 10.8962C24.9284 10.8962 25.8864 11.293 26.5927 11.9994C27.299 12.7057 27.6958 13.6636 27.6958 14.6625C27.6958 13.6083 28.1175 12.6692 28.8075 11.9983C29.3344 11.4698 30.0064 11.1095 30.7383 10.9632C31.4701 10.8169 32.2289 10.8911 32.9186 11.1764C33.6083 11.4617 34.1977 11.9452 34.6123 12.5659C35.0269 13.1865 35.248 13.9161 35.2475 14.6625C35.2475 13.6083 35.6692 12.6692 36.3592 11.9983C36.8861 11.4698 37.5581 11.1095 38.2899 10.9632C39.0218 10.8169 39.7806 10.8911 40.4703 11.1764C41.1599 11.4617 41.7494 11.9452 42.164 12.5659C42.5786 13.1865 42.7996 13.9161 42.7992 14.6625V13.5125C42.7992 12.0558 43.9875 10.8867 45.4442 10.8867C46.9008 10.8867 48.07 12.0558 48.07 13.5125V16.9433M20.1557 14.6567V20.907M27.7035 14.6567V20.907M35.2513 14.6567V20.907M42.8011 14.6567V16.8973" stroke="#CCCCCC" stroke-width="0.625" stroke-linecap="round" stroke-linejoin="round"/>
<path d="M14.8733 42.2817H13.1867C11.6342 42.2817 10.4075 43.6042 10.5608 45.1758C10.6758 46.5558 11.9217 47.5525 13.2825 47.5525H14.3175C13.5711 47.552 12.8415 47.7731 12.2208 48.1877C11.6002 48.6023 11.1167 49.1917 10.8314 49.8814C10.546 50.5711 10.4719 51.3299 10.6182 52.0617C10.7645 52.7936 11.1248 53.4656 11.6533 53.9925C12.3242 54.6825 13.2633 55.1042 14.3175 55.1042M14.3175 55.1042C13.5711 55.1037 12.8415 55.3248 12.2208 55.7393C11.6002 56.1539 11.1167 56.7434 10.8314 57.4331C10.546 58.1227 10.4719 58.8815 10.6182 59.6134C10.7645 60.3453 11.1248 61.0172 11.6533 61.5442C12.3242 62.2342 13.2633 62.6558 14.3175 62.6558C12.2283 62.6558 10.5417 64.3425 10.5417 66.4317C10.5417 68.5208 12.2283 70.2075 14.3175 70.2075H13.2825C11.9217 70.2075 10.6758 71.2042 10.5608 72.5842C10.4075 74.1558 11.6342 75.4783 13.1867 75.4783H50.6192C50.9657 75.4764 51.3074 75.3961 51.6186 75.2435C51.9297 75.0909 52.2024 74.87 52.4162 74.5972C52.63 74.3244 52.7794 74.0069 52.8532 73.6682C52.927 73.3296 52.9234 72.9787 52.8425 72.6417L50.5808 63.25M14.3175 55.1042H20.5658M14.3156 70.2017H20.5658M14.3156 62.652H20.5658M14.3156 47.5563H20.5658M42.9142 31.7975L40.02 19.7225C39.675 18.285 40.7675 16.8858 42.2625 16.8858H42.7992L48.07 16.9242L78.8133 17.1733C80.3658 17.1733 81.5925 18.4958 81.4392 20.0675C81.3242 21.4475 80.0783 22.4442 78.7175 22.4442H77.6825C79.7717 22.4442 81.4583 24.15 81.4583 26.22C81.4583 28.3092 79.7717 29.9958 77.6825 29.9958C78.7367 29.9958 79.6758 30.4175 80.3467 31.1075C80.8752 31.6344 81.2355 32.3064 81.3818 33.0383C81.5281 33.7701 81.4539 34.529 81.1686 35.2186C80.8833 35.9083 80.3997 36.4977 79.7791 36.9123C79.1585 37.3269 78.4288 37.548 77.6825 37.5475M77.6825 37.5475C78.7367 37.5475 79.6758 37.9692 80.3467 38.6592C80.8752 39.1861 81.2355 39.8581 81.3818 40.5899C81.5281 41.3218 81.4539 42.0806 81.1686 42.7703C80.8833 43.4599 80.3997 44.0494 79.7791 44.464C79.1585 44.8786 78.4288 45.0996 77.6825 45.0992H78.7175C80.0783 45.0992 81.3242 46.0958 81.4392 47.4758C81.5925 49.0475 80.3658 50.37 78.8133 50.37H76.8775M77.6825 37.5475H71.4342M77.6844 22.4518H71.4342M77.6844 29.9997H71.4342M77.6844 45.0953H76.8698" stroke="#CCCCCC" stroke-width="0.625" stroke-linecap="round" stroke-linejoin="round"/>
<path d="M49.0858 44.8117L74.0408 38.8125C75.4783 38.4675 76.8775 39.56 76.8775 41.055V78.4875C76.8775 80.0208 75.555 81.2475 73.9833 81.1133C72.6033 80.9792 71.5875 79.7525 71.5875 78.3725V77.3375C71.5875 78.3364 71.1907 79.2943 70.4844 80.0006C69.7781 80.7069 68.8201 81.1037 67.8212 81.1037C66.8224 81.1037 65.8644 80.7069 65.1581 80.0006C64.4518 79.2943 64.055 78.3364 64.055 77.3375C64.055 78.3917 63.6333 79.3308 62.9433 80.0017C62.4164 80.5302 61.7444 80.8905 61.0126 81.0368C60.2807 81.1831 59.5219 81.1089 58.8322 80.8236C58.1425 80.5383 57.5531 80.0547 57.1385 79.4341C56.7239 78.8135 56.5028 78.0838 56.5033 77.3375C56.5033 78.3917 56.0816 79.3308 55.3916 80.0017C54.7208 80.6917 53.7816 81.1133 52.7275 81.1133C50.6383 81.1133 48.9517 79.4267 48.9517 77.3375V78.3725C48.9517 79.7525 47.9358 80.9792 46.575 81.1133C45.0033 81.2475 43.6808 80.0208 43.6808 78.4875V75.4783M71.5971 77.3432V71.093M64.0473 77.3432V71.093M56.4995 77.3432V71.093M48.9517 77.3432V75.4745" stroke="#CCCCCC" stroke-width="0.625" stroke-linecap="round" stroke-linejoin="round"/>
<path d="M56.3864 51.0083C56.3748 49.4446 55.7467 47.9487 54.6384 46.8455C53.5302 45.7423 52.0314 45.1209 50.4677 45.1164H49.0877V31.9432C49.0986 31.2232 48.8632 30.5212 48.4205 29.9534C47.9778 29.3855 47.3544 28.986 46.6536 28.8209C46.2025 28.7247 45.7356 28.7305 45.287 28.8378C44.8384 28.9452 44.4195 29.1515 44.0609 29.4416C43.7023 29.7317 43.4131 30.0982 43.2143 30.5145C43.0156 30.9307 42.9124 31.3861 42.9122 31.8473V45.1164H41.5763C40.008 45.121 38.5052 45.746 37.3962 46.855C36.2872 47.964 35.6622 49.4668 35.6577 51.0351L32.499 60.9519C32.4156 61.2171 32.3958 61.4983 32.4413 61.7726C32.4869 62.0468 32.5964 62.3065 32.7611 62.5306C32.9257 62.7546 33.1409 62.9366 33.3891 63.062C33.6372 63.1873 33.9115 63.2524 34.1895 63.2519H57.8105C58.0884 63.2521 58.3624 63.1868 58.6103 63.0613C58.8582 62.9359 59.0731 62.7538 59.2376 62.5298C59.402 62.3058 59.5114 62.0462 59.5568 61.7721C59.6022 61.498 59.5825 61.217 59.4991 60.9519L56.3864 51.0083ZM56.3864 51.0083H35.6136M46 59.7923V51.0083M51.4395 51.0083L53.0495 59.7923M40.5586 51.0083L38.9486 59.7923" stroke="#CCCCCC" stroke-width="0.625" stroke-linecap="round" stroke-linejoin="round"/>
</svg>
