<svg width="32" height="32" viewBox="0 0 32 32" fill="none" xmlns="http://www.w3.org/2000/svg">
<g clip-path="url(#clip0_58_2)">
<mask id="mask0_58_2" style="mask-type:luminance" maskUnits="userSpaceOnUse" x="0" y="0" width="32" height="32">
<path d="M0 0H32V32H0V0Z" fill="white"/>
</mask>
<g mask="url(#mask0_58_2)">
<path fill-rule="evenodd" clip-rule="evenodd" d="M0 0H32V32H0V0ZM12.6667 10.6667L13.3333 8L14 10.6667L16 11.3333L14 12L13.3333 14.6667L12.6667 12L10.6667 11.3333L12.6667 10.6667ZM23 4L21.5553 9.12667L18.6667 10.6353L21.5553 12.1433L23 16.6667L24.4447 12.1427L27.3333 10.6347L24.4447 9.12733L23 4ZM4 20C4 19.8232 4.07024 19.6536 4.19526 19.5286C4.32029 19.4036 4.48986 19.3333 4.66667 19.3333H6.66667C6.84348 19.3333 7.01305 19.4036 7.13807 19.5286C7.2631 19.6536 7.33333 19.8232 7.33333 20V27.3307C7.33333 27.5075 7.2631 27.677 7.13807 27.8021C7.01305 27.9271 6.84348 27.9973 6.66667 27.9973H4.66667C4.48986 27.9973 4.32029 27.9271 4.19526 27.8021C4.07024 27.677 4 27.5075 4 27.3307V20ZM11.8033 19.4593C12.4247 19.176 13.9433 19.4593 13.9433 19.4593L18.3607 20.45C18.3607 20.45 19.4653 20.804 20.5007 20.804C21.536 20.804 20.9167 22.2213 20.224 22.716C19.532 23.2107 19.028 23.184 19.028 23.184L15.4613 23.1407C15.4613 23.1407 18.568 23.7073 19.7413 23.778C20.3353 23.814 21.3547 23.3953 22.4947 22.928C23.6047 22.472 24.828 21.97 25.884 21.7953C28.024 21.442 28.3693 23.3533 27.6787 24.0613C26.9887 24.7693 21.4667 27.4593 20.5007 27.8133C19.7433 28.0907 18.828 27.9987 17.7953 27.8947C17.5093 27.866 17.214 27.836 16.9113 27.8133C15.7047 27.722 14.7833 27.4287 13.8713 27.1387C12.8927 26.828 11.9253 26.5207 10.63 26.468C10.1953 26.4507 9.178 26.5047 8.66667 26.5347V20.6267C9.55067 20.312 11.3407 19.67 11.8033 19.4593Z" fill="#FF9A62"/>
</g>
</g>
<defs>
<clipPath id="clip0_58_2">
<rect width="32" height="32" fill="white"/>
</clipPath>
</defs>
</svg>
